<svg xmlns="http://www.w3.org/2000/svg" width="91.006" height="19.503" viewBox="0 0 91.006 19.503">
  <g id="dexef_logo_body" transform="translate(0 -0.051)">
    <g id="Layer_1" data-name="Layer 1" transform="translate(0 0.051)">
      <path id="Path_285" data-name="Path 285" d="M385.39.23h-9.74a1.946,1.946,0,0,0-1.95,1.943V17.722a1.95,1.95,0,0,0,3.9,0V11.89h5.845a1.943,1.943,0,0,0,0-3.887H377.6V4.117h7.793a1.943,1.943,0,1,0,0-3.887Z" transform="translate(-296.328 -0.195)" fill="#0075f4"/>
      <path id="Path_286" data-name="Path 286" d="M305.39,15.777H297.6V11.89h5.845a1.943,1.943,0,0,0,0-3.887H297.6V4.117h7.794a1.943,1.943,0,0,0,0-3.887h-9.74a1.946,1.946,0,0,0-1.95,1.943V17.722a1.946,1.946,0,0,0,1.95,1.943h9.742a1.943,1.943,0,0,0,0-3.887Z" transform="translate(-233.218 -0.195)" fill="#0075f4"/>
      <path id="Path_287" data-name="Path 287" d="M111.69,15.777H103.9V11.89h5.845a1.943,1.943,0,0,0,0-3.887H103.9V4.117h7.794a1.943,1.943,0,0,0,0-3.887h-9.74A1.946,1.946,0,0,0,100,2.173V17.722a1.946,1.946,0,0,0,1.95,1.943h9.742a1.943,1.943,0,0,0,0-3.887Z" transform="translate(-79.213 -0.195)" fill="#0075f4"/>
      <path id="Path_288" data-name="Path 288" d="M13.639,2.175a9.679,9.679,0,0,0-1.95-1.135A9.155,9.155,0,0,0,10.519.619,9.732,9.732,0,0,0,7.794.23H1.95A1.946,1.946,0,0,0,0,2.173V17.722a1.946,1.946,0,0,0,1.95,1.943H7.794a9.732,9.732,0,0,0,2.728-.389,9.155,9.155,0,0,0,1.169-.422,9.7,9.7,0,0,0,1.95-16.677ZM7.794,15.78H3.9V4.117h3.9a5.83,5.83,0,1,1,0,11.66Z" transform="translate(0 -0.195)" fill="#0075f4"/>
      <g id="Group_318" data-name="Group 318" transform="translate(36.684 0)">
        <path id="Path_289" data-name="Path 289" d="M189,2.743l-.04-.037-.04-.039-.038-.037-.04-.039c-.012-.013-.026-.025-.04-.039l-.038-.037-.04-.039-.038-.037-.04-.039-.04-.039-.038-.037-.04-.039-.038-.037-.04-.039c-.012-.013-.026-.025-.04-.039l-.038-.037-.04-.039-.038-.037-.04-.039c-.012-.013-.026-.025-.04-.039l-.038-.046-.04-.039-.038-.037-.04-.039-.04-.039-.038-.037-.04-.039-.038-.039-.04-.037-.04-.039-.038-.037-.04-.032-.04-.039-.038-.037-.04-.039-.038-.037-.04-.039c-.012-.013-.026-.025-.04-.039l-.038-.037-.04-.039-.038-.037-.04-.039L187.3,1.1l-.03-.029-.04-.039L187.189.99l-.04-.039-.04-.038-.042-.037-.04-.039c-1.811-1.86-4.772,1-2.845,2.746l.038.039.04.039.04.037.038.039.04.037a.372.372,0,0,0,.04.039l.038.039.04.037.038.039.04.037a.371.371,0,0,0,.04.039l.038.039.04.037.038.039.04.037.04.039.038.039.04.037.038.039.04.039.04.037.038.039.04.037.038.039.04.039.04.037.038.039.04.037.038.039.04.039.04.037.038.039.04.037.04.039.038.039.04.037.038.039.04.037a.373.373,0,0,0,.04.039l.038.039.04.037.038.039.04.039.04.037.038.039.04.037.038.039.04.039.04.037.038.039C187.967,7.35,190.923,4.494,189,2.743Z" transform="translate(-182.85 -0.197)" fill="#f60"/>
        <path id="Path_290" data-name="Path 290" d="M259,72.746l-.02-.019a.093.093,0,0,1-.02-.02l-.02-.02-.02-.02-.02-.018-.06-.059-.02-.019-.018-.02-.02-.019a.094.094,0,0,1-.02-.02l-.04-.039-.02-.018-.06-.059-.02-.02-.018-.02-.02-.019a.092.092,0,0,1-.02-.02.18.18,0,0,1-.02-.02l-.02-.019-.02-.018-.06-.059-.02-.019-.021-.017-.02-.02-.04-.039-.02-.02-.02-.018-.04-.039a.093.093,0,0,0-.02-.02.183.183,0,0,0-.02-.02l-.019-.02-.02-.02-.04-.039-.02-.018-.02-.02-.02-.02-.04-.039-.02-.02L258,71.782l-.02-.02-.04-.039-.02-.02-.02-.018a.182.182,0,0,0-.02-.02l-.04-.039-.02-.02-.018-.02-.02-.02-.04-.039-.02-.02-.02-.018-.02-.02-.04-.039-.02-.02-.018-.02-.02-.02-.04-.039-.02-.02-.02-.018-.02-.02-.04-.039a.18.18,0,0,0-.02-.02L257.4,71.2l-.02-.02-.04-.039-.02-.02-.02-.018-.02-.019-.04-.039a.094.094,0,0,0-.02-.02l-.018-.019a.182.182,0,0,1-.02-.02l-.04-.039-.02-.02-.02-.018-.02-.02-.04-.039a.093.093,0,0,0-.02-.02l-.018-.02c-1.811-1.836-4.75,1-2.847,2.748l.02.02.02.02.018.018.02.02.02.02.02.02.02.02.02.02.02.02.02.02.02.02.02.019.018.018.02.02.02.02.02.02.02.02.02.02.02.02.02.02.02.02.02.02.018.018.02.02.02.02.02.02.02.019.02.02.02.019.02.02.02.02.02.02.02.018.018.02.02.02.02.02.02.019.02.02.02.02.02.019.02.02.02.02.02.02.018.018.02.019.02.02.02.019.02.02.02.02.02.02.02.02.02.02.02.019.018.018.02.02.02.019.02.02.02.019.02.02.02.02.02.02.02.02.02.02.018.018.02.02.02.02.02.02.02.02.02.02.02.02.02.02.02.02.02.02.018.018.02.02.02.02.02.02.02.02.02.02.02.02.02.02.02.02.02.019.018.018.02.02.02.02.02.02.02.02.02.02.02.02.02.02.02.02.02.019.018.018.02.02.02.02.02.02.02.019.02.02.02.02C257.963,77.33,260.9,74.5,259,72.746Z" transform="translate(-238.743 -56.588)" fill="#f60"/>
        <path id="Path_291" data-name="Path 291" d="M196.944,1.985A2.035,2.035,0,0,0,193.461.661c-.038.021-2.155,2.068-2.193,2.1s-.066.064-.1.1-.068.062-.1.1-.066.064-.1.1-.068.062-.1.1-.066.064-.1.1-.068.062-.1.1-.066.064-.1.1-.068.062-.1.1-.066.064-.1.1-.068.062-.1.1-.066.064-.1.1-.068.062-.1.1-.066.064-.1.1-.068.062-.1.1-.068.065-.1.1-.068.062-.1.1-.066.064-.1.1-.068.062-.1.1-.066.064-.1.1-.068.062-.1.1-.066.064-.1.1-.068.062-.1.1-.066.064-.1.1-.068.062-.1.1-.066.064-.1.1-.068.062-.1.1-.066.064-.1.1-.068.062-.1.1-.066.064-.1.1-.068.062-.1.1-.066.064-.1.1-.068.062-.1.1-.066.064-.1.1-.068.062-.1.1-.066.064-.1.1-.068.062-.1.1-.066.064-.1.1-.068.062-.1.1-.066.064-.1.1-.068.062-.1.1-.066.064-.1.1-.068.062-.1.1-.066.064-.1.1-.068.062-.1.1-.066.064-.1.1-.068.062-.1.1-.066.062-.1.1-.068.062-.1.1-.066.062-.1.1-.068.062-.1.1-.066.062-.1.1-.068.062-.1.1-.066.062-.1.1-.068.062-.1.1-.066.062-.1.1-.068.062-.1.1-.066.062-.1.1-.068.062-.1.1-.066.062-.1.1-.068.062-.1.1-.066.062-.1.1-.068.062-.1.1-.066.062-.1.1l-.1.1-.1.1-.1.1-.1.1c-.034.031-.068.064-.1.1s-.066.062-.1.1l-.1.1-.1.1-.1.1-.1.1c-.034.031-.068.064-.1.1s-.066.062-.1.1-.068.064-.1.1l-.1.1-.1.1-.1.1c-.034.031-.068.064-.1.1s-.066.062-.1.1-.068.064-.1.1-.066.062-.1.1-.068.064-.1.1l-.1.1c-.036.031-.068.064-.1.1s-.066.062-.1.1-.068.064-.1.1-.068.062-.1.1-.068.064-.1.1-.068.062-.1.1-.068.064-.1.1-.068.062-.1.1-.068.064-.1.1-.068.062-.1.1-.068.064-.1.1-.068.062-.1.1-.068.064-.1.1-.779.748-.806.777c-2,1.749,1.031,4.678,2.843,2.744.034-.031.779-.748.806-.777s.066-.064.1-.1.068-.062.1-.1.066-.064.1-.1.068-.062.1-.1.066-.064.1-.1.068-.062.1-.1.066-.064.1-.1.068-.062.1-.1.066-.064.1-.1.068-.062.1-.1.066-.064.1-.1.068-.062.1-.1.066-.064.1-.1.068-.062.1-.1.068-.064.1-.1.068-.062.1-.1.068-.064.1-.1.068-.062.1-.1.068-.064.1-.1.068-.062.1-.1.068-.064.1-.1a1.172,1.172,0,0,0,.1-.1,1.125,1.125,0,0,0,.1-.1,1.166,1.166,0,0,0,.1-.1c.034-.029.068-.062.1-.1s.066-.062.1-.1.068-.062.1-.1.066-.062.1-.1.068-.062.1-.1.066-.062.1-.1.068-.062.1-.1.066-.062.1-.1.068-.062.1-.1.066-.062.1-.1.068-.062.1-.1.066-.062.1-.1.068-.062.1-.1.066-.062.1-.1.068-.062.1-.1.066-.064.1-.1.068-.062.1-.1.066-.064.1-.1.068-.062.1-.1.066-.064.1-.1.068-.062.1-.1.066-.064.1-.1.068-.062.1-.1.066-.064.1-.1.068-.062.1-.1.066-.064.1-.1.068-.062.1-.1.066-.064.1-.1.068-.062.1-.1.066-.064.1-.1.068-.062.1-.1.066-.064.1-.1.068-.062.1-.1.066-.064.1-.1.068-.062.1-.1.066-.064.1-.1.068-.062.1-.1.066-.064.1-.1.068-.062.1-.1.066-.064.1-.1.068-.062.1-.1.066-.064.1-.1.068-.062.1-.1.066-.064.1-.1.068-.062.1-.1.066-.064.1-.1.068-.062.1-.1.066-.064.1-.1.068-.062.1-.1.066-.064.1-.1.068-.062.1-.1.066-.064.1-.1.068-.062.1-.1.066-.064.1-.1.068-.062.1-.1.066-.064.1-.1.068-.062.1-.1.066-.064.1-.1.068-.062.1-.1.066-.064.1-.1.068-.062.1-.1.066-.064.1-.1.068-.062.1-.1.066-.064.1-.1.068-.062.1-.1.066-.064.1-.1.068-.062.1-.1.066-.064.1-.1.068-.062.1-.1.066-.064.1-.1.068-.062.1-.1.066-.064.1-.1.068-.062.1-.1.066-.064.1-.1S196.266,3.43,196.3,3.4a1.913,1.913,0,0,0,.645-1.411Z" transform="translate(-180.041 -0.051)" fill="#f60"/>
        <path id="Path_292" data-name="Path 292" d="M216.654,18.232a2.037,2.037,0,0,0-3.485-1.323c-.034.031-2.155,2.077-2.187,2.11s-.068.064-.1.1-.066.062-.1.1-.068.064-.1.1l-.1.1c-.034.031-.068.064-.1.1s-.066.062-.1.1-.068.064-.1.1-.066.062-.1.1-.068.064-.1.1-.068.062-.1.1-.068.064-.1.1-.068.062-.1.1-.068.064-.1.1-.068.062-.1.1-.068.064-.1.1-.068.062-.1.1-.068.064-.1.1-.068.062-.1.1-.068.064-.1.1-.068.062-.1.1-.068.064-.1.1-.068.062-.1.1-.068.064-.1.1-.068.062-.1.1-.066.064-.1.1-.068.062-.1.1-.066.064-.1.1-.068.062-.1.1-.066.064-.1.1-.068.062-.1.1-.066.064-.1.1-.068.062-.1.1-.066.064-.1.1-.068.062-.1.1-.066.064-.1.1-.068.062-.1.1-.066.064-.1.1-.068.062-.1.1-.066.064-.1.1-.068.062-.1.1-.066.064-.1.1-.068.062-.1.1-.066.064-.1.1-.068.062-.1.1-.066.064-.1.1-.068.062-.1.1-.066.064-.1.1-.068.062-.1.1-.066.064-.1.1-.068.062-.1.1-.066.064-.1.1-.068.062-.1.1-.066.064-.1.1-.068.062-.1.1-.066.064-.1.1-.068.062-.1.1-.066.064-.1.1-.068.062-.1.1-.066.064-.1.1-.068.062-.1.1-.066.064-.1.1-.068.062-.1.1-.066.064-.1.1-.068.062-.1.1-.066.064-.1.1-.068.062-.1.1-.066.064-.1.1-.068.062-.1.1-.066.064-.1.1-.068.062-.1.1-.066.064-.1.1-.068.062-.1.1-.066.064-.1.1-.068.062-.1.1-.066.064-.1.1-.068.062-.1.1-.066.062-.1.1-.068.062-.1.1-.066.062-.1.1-.068.062-.1.1-.066.062-.1.1-.068.062-.1.1-.066.062-.1.1-.068.062-.1.1-.066.062-.1.1-.068.062-.1.1-.066.062-.1.1-.068.062-.1.1-.066.062-.1.1-.068.062-.1.1-.066.062-.1.1l-.1.1-.1.1c-.034.031-.068.064-.1.1s-.066.062-.1.1-.068.064-.1.1l-.1.1-.1.1c-.034.031-.779.748-.806.777-2,1.749,1.031,4.677,2.843,2.744.034-.031.779-.748.806-.777a1.122,1.122,0,0,0,.1-.1,1.164,1.164,0,0,0,.1-.1,1.111,1.111,0,0,0,.1-.1,1.167,1.167,0,0,0,.1-.1,1.115,1.115,0,0,0,.1-.1,1.16,1.16,0,0,0,.1-.1c.034-.031.068-.062.1-.1s.066-.062.1-.1.068-.062.1-.1.066-.062.1-.1.068-.062.1-.1.066-.062.1-.1.068-.062.1-.1.066-.064.1-.1.068-.062.1-.1.066-.064.1-.1.068-.062.1-.1.066-.064.1-.1.068-.062.1-.1.066-.064.1-.1.068-.062.1-.1.066-.064.1-.1.068-.062.1-.1.066-.064.1-.1.068-.062.1-.1.066-.064.1-.1.068-.062.1-.1.066-.064.1-.1.068-.062.1-.1.066-.064.1-.1.068-.062.1-.1.066-.064.1-.1.068-.062.1-.1.066-.064.1-.1.068-.062.1-.1.066-.064.1-.1.068-.062.1-.1.066-.064.1-.1.068-.062.1-.1.066-.064.1-.1.068-.062.1-.1.066-.064.1-.1.068-.062.1-.1.066-.064.1-.1.068-.062.1-.1.066-.064.1-.1.068-.062.1-.1.066-.064.1-.1.068-.062.1-.1.066-.064.1-.1.068-.062.1-.1.066-.064.1-.1.068-.062.1-.1.066-.064.1-.1.068-.062.1-.1.066-.064.1-.1.068-.062.1-.1.066-.064.1-.1.068-.062.1-.1.066-.064.1-.1.068-.062.1-.1.066-.064.1-.1.068-.062.1-.1.066-.064.1-.1.068-.062.1-.1.066-.064.1-.1.068-.062.1-.1.066-.064.1-.1.068-.062.1-.1.066-.064.1-.1.068-.062.1-.1.066-.064.1-.1.068-.062.1-.1.066-.064.1-.1.068-.062.1-.1.066-.064.1-.1.068-.062.1-.1.066-.064.1-.1.068-.062.1-.1.066-.064.1-.1.068-.062.1-.1.066-.064.1-.1.068-.062.1-.1.066-.064.1-.1.068-.062.1-.1.066-.064.1-.1.068-.062.1-.1.066-.064.1-.1.068-.062.1-.1.066-.064.1-.1.068-.062.1-.1.066-.064.1-.1.068-.062.1-.1.066-.064.1-.1a1.164,1.164,0,0,0,.1-.1,1.121,1.121,0,0,0,.1-.1,1.172,1.172,0,0,0,.1-.1,1.121,1.121,0,0,0,.1-.1c.036-.031,2.156-2.077,2.189-2.11A1.913,1.913,0,0,0,216.654,18.232Z" transform="translate(-195.785 -13.141)" fill="#f60"/>
      </g>
    </g>
  </g>
</svg>
