<svg xmlns="http://www.w3.org/2000/svg" xmlns:xlink="http://www.w3.org/1999/xlink" width="48" height="48" viewBox="0 0 48 48"><path fill="#78909C" d="M6,29v10c0,2.209,1.791,4,4,4h28c2.209,0,4-1.791,4-4V29H6z"/><path fill="#455A64" d="M42,29c0,2.209-1.791,4-4,4H10c-2.209,0-4-1.791-4-4l3-18c0.219-2.094,1.791-4,4-4h22c2.209,0,3.688,1.75,4,4L42,29z"/><path fill="#64DD17" d="M35 36A2 2 0 1 0 35 40A2 2 0 1 0 35 36Z"/><path fill="#00E5FF" d="M24.001 27.242L32 19.242 16 19.242z"/><path fill="#00E5FF" d="M21 4H26.998V19.999000000000002H21z"/></svg>